<?xml version="1.0" encoding="utf-8" ?>
<svg baseProfile="tiny" height="980" version="1.2" width="980" xmlns="http://www.w3.org/2000/svg" xmlns:ev="http://www.w3.org/2001/xml-events" xmlns:xlink="http://www.w3.org/1999/xlink"><defs /><path d="M 416,473 L 416,475 L 415,476 L 415,477 L 414,478 L 414,481 L 413,482 L 413,483 L 412,484 L 412,486 L 411,487 L 411,489 L 410,490 L 410,492 L 409,493 L 409,494 L 408,495 L 408,497 L 407,498 L 407,499 L 406,500 L 406,502 L 405,503 L 405,505 L 404,506 L 404,507 L 403,508 L 403,509 L 402,510 L 402,511 L 401,512 L 401,514 L 400,515 L 400,517 L 399,518 L 399,519 L 398,520 L 398,521 L 397,522 L 397,524 L 396,525 L 396,526 L 395,527 L 395,528 L 394,529 L 394,530 L 393,531 L 393,532 L 392,533 L 392,535 L 391,536 L 391,537 L 390,538 L 390,539 L 389,540 L 389,541 L 388,542 L 388,543 L 387,544 L 387,545 L 386,546 L 386,547 L 385,548 L 385,549 L 384,550 L 384,551 L 383,552 L 383,553 L 381,555 L 381,556 L 380,557 L 380,558 L 379,559 L 379,560 L 378,561 L 378,562 L 377,563 L 377,564 L 375,566 L 375,567 L 374,568 L 374,569 L 373,570 L 373,571 L 371,573 L 371,574 L 370,575 L 370,576 L 368,578 L 368,579 L 367,580 L 367,581 L 366,582 L 366,583 L 364,585 L 364,586 L 362,588 L 362,589 L 361,590 L 361,591 L 359,593 L 359,594 L 357,596 L 357,597 L 356,598 L 356,599 L 353,602 L 353,603 L 351,605 L 351,606 L 348,609 L 348,610 L 346,612 L 346,613 L 343,616 L 343,617 L 341,619 L 341,620 L 338,623 L 338,624 L 334,628 L 334,629 L 331,632 L 331,633 L 328,636 L 328,637 L 323,642 L 323,643 L 317,649 L 317,650 L 310,657 L 310,658 L 303,665 L 303,666 L 281,688 L 281,690 L 280,691 L 280,695 L 279,696 L 279,701 L 278,702 L 278,707 L 277,708 L 277,713 L 276,714 L 276,717 L 275,718 L 275,723 L 274,724 L 274,729 L 273,730 L 273,735 L 272,736 L 272,740 L 271,741 L 271,746 L 270,747 L 270,751 L 269,752 L 269,757 L 268,758 L 268,763 L 267,764 L 267,768 L 266,769 L 266,775 L 265,776 L 265,780 L 264,781 L 264,785 L 356,785 L 356,781 L 357,780 L 357,776 L 358,775 L 358,770 L 359,769 L 359,764 L 360,763 L 360,758 L 361,757 L 361,752 L 362,751 L 362,747 L 363,746 L 363,741 L 364,740 L 364,736 L 365,735 L 365,731 L 366,730 L 366,725 L 367,724 L 367,719 L 368,718 L 368,714 L 369,713 L 369,708 L 370,707 L 370,702 L 371,701 L 371,696 L 372,695 L 372,691 L 373,690 L 373,684 L 374,683 L 374,680 L 375,679 L 375,674 L 376,673 L 376,668 L 377,667 L 377,662 L 378,661 L 378,657 L 379,656 L 379,651 L 380,650 L 380,645 L 381,644 L 381,640 L 382,639 L 382,634 L 383,633 L 383,628 L 384,627 L 384,622 L 385,621 L 385,616 L 386,615 L 386,611 L 387,610 L 387,605 L 388,604 L 388,600 L 389,599 L 389,594 L 390,593 L 390,588 L 391,587 L 391,582 L 392,581 L 392,576 L 393,575 L 393,571 L 394,570 L 394,565 L 395,564 L 395,560 L 397,558 L 699,558 L 699,554 L 700,553 L 700,548 L 701,547 L 701,542 L 702,541 L 702,536 L 703,535 L 703,531 L 704,530 L 704,525 L 705,524 L 705,520 L 706,519 L 706,513 L 707,512 L 707,508 L 708,507 L 708,502 L 709,501 L 709,496 L 710,495 L 710,490 L 711,489 L 711,484 L 712,483 L 712,478 L 713,477 L 713,473 Z" fill="blue" /><path d="M 253,208 L 251,210 L 251,211 L 247,215 L 247,216 L 242,221 L 242,222 L 236,228 L 236,229 L 231,234 L 231,235 L 227,239 L 227,240 L 222,245 L 222,246 L 216,252 L 216,253 L 212,257 L 212,258 L 206,264 L 206,265 L 201,270 L 201,271 L 196,276 L 196,277 L 190,283 L 190,284 L 185,289 L 185,290 L 181,294 L 184,294 L 185,295 L 201,295 L 202,296 L 205,296 L 206,297 L 206,298 L 205,299 L 205,315 L 204,316 L 204,333 L 203,334 L 203,340 L 202,341 L 201,341 L 200,342 L 200,358 L 199,359 L 204,359 L 205,360 L 210,360 L 210,349 L 211,348 L 211,342 L 209,342 L 208,341 L 208,338 L 209,337 L 209,320 L 210,319 L 210,303 L 211,302 L 211,297 L 212,296 L 219,296 L 220,297 L 231,297 L 232,298 L 232,306 L 233,307 L 233,312 L 234,313 L 234,316 L 235,317 L 235,319 L 236,320 L 236,321 L 237,322 L 237,324 L 238,325 L 238,326 L 239,327 L 239,328 L 240,329 L 240,330 L 243,333 L 243,334 L 246,337 L 246,338 L 251,343 L 252,343 L 255,346 L 256,346 L 258,348 L 259,348 L 261,350 L 262,350 L 263,351 L 264,351 L 265,352 L 267,352 L 268,353 L 270,353 L 271,354 L 273,354 L 274,355 L 277,355 L 278,356 L 298,356 L 299,355 L 302,355 L 303,354 L 305,354 L 306,353 L 308,353 L 309,352 L 311,352 L 312,351 L 313,351 L 314,350 L 315,350 L 317,348 L 318,348 L 319,347 L 320,347 L 324,343 L 325,343 L 331,337 L 331,336 L 334,333 L 334,332 L 337,329 L 337,327 L 338,326 L 338,325 L 339,324 L 339,323 L 340,322 L 340,321 L 341,320 L 341,318 L 342,317 L 342,314 L 343,313 L 343,308 L 344,307 L 344,294 L 343,293 L 343,288 L 342,287 L 342,285 L 341,284 L 341,282 L 340,281 L 340,279 L 339,278 L 339,277 L 338,276 L 338,275 L 337,274 L 337,273 L 336,272 L 336,271 L 335,270 L 378,227 L 376,227 L 375,226 L 370,226 L 369,225 L 363,225 L 362,224 L 356,224 L 355,223 L 350,223 L 349,222 L 344,222 L 343,221 L 336,221 L 335,220 L 330,220 L 329,219 L 323,219 L 322,218 L 317,218 L 316,217 L 310,217 L 309,216 L 304,216 L 303,215 L 297,215 L 296,214 L 290,214 L 289,213 L 284,213 L 283,212 L 277,212 L 276,211 L 271,211 L 270,210 L 264,210 L 263,209 L 258,209 L 257,208 Z" fill="black" /><path d="M 449,204 L 449,214 L 450,215 L 450,263 L 449,264 L 449,289 L 448,290 L 762,290 L 762,288 L 763,287 L 763,282 L 764,281 L 764,277 L 765,276 L 765,272 L 766,271 L 766,265 L 767,264 L 767,260 L 768,259 L 768,254 L 769,253 L 769,248 L 770,247 L 770,243 L 771,242 L 771,238 L 772,237 L 772,232 L 773,231 L 773,227 L 774,226 L 774,221 L 775,220 L 775,216 L 776,215 L 776,211 L 777,210 L 777,204 Z" fill="blue" /><path d="M 432,184 L 432,188 L 431,189 L 431,196 L 430,197 L 430,203 L 429,204 L 429,209 L 428,210 L 428,216 L 427,217 L 427,221 L 426,222 L 426,227 L 425,228 L 425,232 L 424,233 L 424,237 L 423,238 L 423,242 L 422,243 L 422,247 L 421,248 L 421,251 L 420,252 L 420,255 L 419,256 L 419,260 L 418,261 L 418,263 L 417,264 L 417,267 L 416,268 L 416,271 L 415,272 L 415,274 L 414,275 L 414,278 L 413,279 L 413,281 L 412,282 L 412,284 L 411,285 L 411,288 L 410,289 L 410,290 L 409,291 L 409,293 L 408,294 L 408,296 L 407,297 L 407,299 L 406,300 L 406,301 L 405,302 L 405,304 L 404,305 L 404,307 L 403,308 L 403,309 L 402,310 L 402,311 L 401,312 L 401,314 L 400,315 L 400,316 L 399,317 L 399,319 L 398,320 L 398,321 L 397,322 L 397,323 L 395,325 L 395,326 L 394,327 L 394,328 L 393,329 L 393,330 L 392,331 L 392,332 L 391,333 L 391,334 L 390,335 L 390,336 L 388,338 L 388,339 L 386,341 L 386,342 L 384,344 L 384,345 L 382,347 L 382,348 L 380,350 L 380,351 L 376,355 L 376,356 L 360,372 L 359,372 L 355,376 L 354,376 L 352,378 L 351,378 L 349,380 L 348,380 L 346,382 L 344,382 L 343,383 L 342,383 L 340,385 L 338,385 L 337,386 L 336,386 L 335,387 L 333,387 L 332,388 L 331,388 L 330,389 L 328,389 L 327,390 L 324,390 L 323,391 L 320,391 L 319,392 L 318,392 L 317,393 L 317,395 L 316,396 L 316,397 L 315,398 L 315,400 L 314,401 L 314,402 L 313,403 L 313,404 L 312,405 L 312,407 L 311,408 L 311,409 L 310,410 L 310,411 L 309,412 L 309,435 L 308,436 L 308,461 L 307,462 L 307,489 L 306,490 L 306,514 L 305,515 L 305,540 L 304,541 L 304,566 L 303,567 L 303,586 L 301,588 L 300,588 L 297,591 L 296,591 L 292,595 L 291,595 L 288,598 L 287,598 L 284,601 L 283,601 L 280,604 L 279,604 L 276,607 L 275,607 L 273,609 L 271,607 L 271,606 L 267,602 L 267,601 L 264,598 L 264,597 L 261,594 L 261,593 L 257,589 L 257,588 L 253,584 L 253,581 L 254,580 L 254,578 L 255,577 L 255,576 L 256,575 L 256,574 L 257,573 L 257,572 L 258,571 L 258,569 L 259,568 L 259,566 L 260,565 L 260,564 L 261,563 L 261,561 L 262,560 L 262,559 L 263,558 L 263,556 L 264,555 L 264,553 L 265,552 L 265,550 L 266,549 L 266,547 L 267,546 L 267,544 L 268,543 L 268,541 L 269,540 L 269,538 L 270,537 L 270,535 L 271,534 L 271,531 L 272,530 L 272,528 L 273,527 L 273,524 L 274,523 L 274,520 L 275,519 L 275,516 L 276,515 L 276,512 L 277,511 L 277,508 L 278,507 L 278,503 L 279,502 L 279,499 L 280,498 L 280,494 L 281,493 L 281,488 L 282,487 L 282,483 L 283,482 L 283,476 L 284,475 L 284,470 L 285,469 L 285,462 L 286,461 L 286,454 L 287,453 L 287,444 L 288,443 L 288,432 L 289,431 L 289,414 L 288,413 L 288,411 L 287,410 L 287,403 L 286,402 L 286,394 L 285,393 L 277,393 L 276,392 L 270,392 L 269,391 L 265,391 L 264,390 L 260,390 L 259,389 L 256,389 L 255,388 L 252,388 L 251,387 L 248,387 L 247,386 L 244,386 L 243,385 L 241,385 L 240,384 L 238,384 L 237,383 L 234,383 L 233,382 L 231,382 L 230,381 L 228,381 L 227,380 L 226,380 L 225,379 L 223,379 L 222,378 L 220,378 L 219,377 L 217,377 L 216,376 L 214,376 L 213,375 L 211,375 L 210,374 L 209,374 L 208,373 L 206,373 L 205,372 L 203,372 L 202,371 L 201,371 L 200,370 L 199,370 L 198,369 L 196,369 L 195,368 L 193,368 L 192,367 L 191,367 L 190,366 L 188,366 L 187,365 L 186,365 L 185,364 L 184,364 L 183,363 L 181,363 L 180,362 L 178,362 L 177,361 L 176,361 L 175,360 L 173,360 L 172,359 L 171,359 L 170,358 L 169,358 L 168,357 L 166,357 L 165,356 L 164,356 L 163,355 L 161,355 L 160,354 L 159,354 L 158,353 L 156,353 L 155,352 L 154,352 L 153,351 L 151,351 L 150,350 L 149,350 L 148,349 L 146,349 L 145,348 L 143,348 L 142,347 L 141,347 L 140,346 L 139,346 L 140,347 L 140,348 L 142,350 L 142,351 L 144,353 L 144,354 L 146,356 L 146,357 L 148,359 L 148,360 L 149,361 L 149,362 L 151,364 L 151,365 L 153,367 L 153,368 L 154,369 L 154,370 L 156,372 L 156,373 L 157,374 L 157,375 L 159,377 L 159,378 L 160,379 L 160,380 L 161,381 L 161,382 L 163,384 L 163,385 L 164,386 L 164,387 L 165,388 L 165,389 L 166,390 L 166,391 L 167,392 L 167,393 L 169,395 L 169,396 L 170,397 L 170,398 L 171,399 L 171,400 L 172,401 L 172,402 L 173,403 L 173,404 L 174,405 L 174,406 L 175,407 L 175,408 L 176,409 L 176,410 L 177,411 L 177,412 L 178,413 L 178,415 L 179,416 L 179,417 L 180,418 L 180,419 L 181,420 L 181,421 L 182,422 L 182,423 L 183,424 L 183,426 L 184,427 L 184,428 L 185,429 L 185,431 L 186,432 L 186,433 L 187,434 L 187,436 L 188,437 L 188,438 L 189,439 L 189,441 L 190,442 L 190,443 L 191,444 L 191,446 L 192,447 L 192,449 L 193,450 L 193,452 L 194,453 L 194,455 L 195,456 L 195,458 L 196,459 L 196,461 L 197,462 L 197,464 L 198,465 L 198,467 L 199,468 L 199,471 L 200,472 L 200,474 L 201,475 L 201,478 L 202,479 L 202,482 L 203,483 L 203,486 L 204,487 L 204,490 L 205,491 L 205,495 L 206,496 L 206,499 L 207,500 L 207,505 L 208,506 L 208,510 L 209,511 L 209,516 L 210,517 L 210,523 L 211,524 L 211,533 L 212,534 L 212,545 L 213,546 L 213,584 L 212,585 L 212,597 L 211,598 L 211,605 L 210,606 L 210,612 L 209,613 L 209,618 L 208,619 L 208,624 L 207,625 L 207,629 L 206,630 L 206,634 L 205,635 L 205,638 L 204,639 L 204,642 L 203,643 L 203,646 L 202,647 L 202,649 L 201,650 L 201,653 L 200,654 L 200,656 L 199,657 L 199,659 L 198,660 L 198,663 L 197,664 L 197,666 L 196,667 L 196,668 L 195,669 L 195,671 L 194,672 L 194,674 L 193,675 L 193,677 L 192,678 L 192,679 L 191,680 L 191,682 L 190,683 L 190,684 L 189,685 L 189,687 L 188,688 L 188,689 L 187,690 L 187,691 L 186,692 L 186,693 L 185,694 L 185,696 L 184,697 L 184,698 L 183,699 L 183,700 L 182,701 L 182,702 L 181,703 L 181,704 L 180,705 L 180,706 L 179,707 L 179,708 L 178,709 L 178,710 L 177,711 L 177,712 L 176,713 L 176,714 L 175,715 L 175,716 L 174,717 L 174,718 L 172,720 L 172,721 L 171,722 L 171,723 L 169,725 L 169,726 L 168,727 L 168,728 L 167,729 L 167,730 L 165,732 L 165,733 L 163,735 L 163,736 L 161,738 L 161,739 L 160,740 L 160,741 L 157,744 L 157,745 L 155,747 L 155,748 L 153,750 L 153,751 L 150,754 L 150,755 L 147,758 L 147,759 L 144,762 L 144,763 L 140,767 L 140,768 L 135,773 L 135,774 L 129,780 L 129,781 L 114,796 L 115,796 L 117,794 L 118,794 L 120,792 L 121,792 L 123,790 L 124,790 L 126,788 L 127,788 L 129,786 L 130,786 L 132,784 L 133,784 L 134,783 L 135,783 L 137,781 L 138,781 L 140,779 L 141,779 L 144,776 L 145,776 L 147,774 L 148,774 L 150,772 L 151,772 L 153,770 L 154,770 L 156,768 L 157,768 L 159,766 L 160,766 L 163,763 L 164,763 L 166,761 L 167,761 L 169,759 L 170,759 L 173,756 L 174,756 L 177,753 L 178,753 L 180,751 L 181,751 L 184,748 L 185,748 L 188,745 L 189,745 L 191,743 L 192,743 L 195,740 L 196,740 L 199,737 L 200,737 L 204,733 L 205,733 L 208,730 L 209,730 L 213,726 L 214,726 L 218,722 L 219,722 L 223,718 L 224,718 L 229,713 L 230,713 L 236,707 L 237,707 L 243,701 L 244,701 L 248,697 L 249,697 L 249,696 L 253,692 L 254,692 L 265,681 L 266,681 L 266,680 L 270,676 L 271,676 L 272,675 L 272,674 L 273,673 L 274,673 L 276,671 L 276,670 L 278,668 L 279,668 L 279,667 L 293,653 L 293,652 L 301,644 L 301,643 L 307,637 L 307,636 L 312,631 L 312,630 L 316,626 L 316,625 L 320,621 L 320,620 L 323,617 L 323,616 L 326,613 L 326,612 L 329,609 L 329,608 L 331,606 L 331,605 L 334,602 L 334,601 L 336,599 L 336,598 L 338,596 L 338,595 L 340,593 L 340,592 L 343,589 L 343,588 L 344,587 L 344,586 L 346,584 L 346,583 L 348,581 L 348,580 L 350,578 L 350,577 L 351,576 L 351,575 L 353,573 L 353,572 L 354,571 L 354,570 L 356,568 L 356,567 L 357,566 L 357,565 L 358,564 L 358,563 L 360,561 L 360,560 L 361,559 L 361,558 L 362,557 L 362,556 L 363,555 L 363,554 L 365,552 L 365,551 L 366,550 L 366,549 L 367,548 L 367,547 L 368,546 L 368,545 L 369,544 L 369,543 L 370,542 L 370,541 L 371,540 L 371,539 L 372,538 L 372,537 L 373,536 L 373,535 L 374,534 L 374,533 L 375,532 L 375,531 L 376,530 L 376,529 L 377,528 L 377,527 L 378,526 L 378,525 L 379,524 L 379,523 L 380,522 L 380,520 L 381,519 L 381,518 L 382,517 L 382,516 L 383,515 L 383,514 L 384,513 L 384,511 L 385,510 L 385,509 L 386,508 L 386,506 L 387,505 L 387,504 L 388,503 L 388,501 L 389,500 L 389,499 L 390,498 L 390,496 L 391,495 L 391,494 L 392,493 L 392,491 L 393,490 L 393,488 L 394,487 L 394,486 L 395,485 L 395,483 L 396,482 L 396,480 L 397,479 L 397,477 L 398,476 L 398,475 L 399,474 L 399,472 L 400,471 L 400,469 L 401,468 L 401,466 L 402,465 L 402,463 L 403,462 L 403,459 L 404,458 L 404,456 L 405,455 L 405,453 L 406,452 L 406,449 L 407,448 L 407,446 L 408,445 L 408,442 L 409,441 L 409,438 L 410,437 L 410,435 L 411,434 L 411,431 L 412,430 L 412,427 L 413,426 L 413,423 L 414,422 L 414,419 L 415,418 L 415,414 L 416,413 L 416,410 L 417,409 L 417,405 L 418,404 L 418,400 L 419,399 L 419,395 L 420,394 L 420,390 L 421,389 L 421,384 L 422,383 L 422,379 L 423,378 L 423,373 L 424,372 L 424,366 L 425,365 L 425,359 L 426,358 L 426,352 L 427,351 L 427,344 L 428,343 L 428,335 L 429,334 L 429,325 L 430,324 L 430,314 L 431,313 L 431,301 L 432,300 L 432,283 L 433,282 L 433,193 L 432,192 Z" fill="black" /></svg>